<svg width="16" height="16" viewBox="0 0 16 16" fill="none" xmlns="http://www.w3.org/2000/svg">
<path d="M13 3.5C13 2.119 10.761 1 8 1C5.239 1 3 2.119 3 3.5C3 3.54 3.02 3.577 3.024 3.617H3V12.489L3.056 12.846C3.336 14.056 5.429 15 8 15C10.571 15 12.664 14.056 12.944 12.846L13 12.489V3.617H12.976C12.98 3.577 13 3.54 13 3.5ZM8 2.032C10.442 2.032 12 2.996 12 3.5C12 4.004 10.442 4.968 8 4.968C5.558 4.968 4 4 4 3.5C4 3 5.558 2.032 8 2.032ZM12 12.49L11.97 12.621C11.855 13.116 10.431 14 8 14C5.569 14 4.145 13.116 4.03 12.621L4 12.49V4.99C5.21092 5.69833 6.59796 6.04855 8 6C9.40243 6.04734 10.7895 5.69572 12 4.986V12.486V12.49Z" fill="#424242"/>
<g clip-path="url(#clip0_3_19)">
<path fill-rule="evenodd" clip-rule="evenodd" d="M8.15626 1.3125C7.27242 1.3125 6.40843 1.43163 5.67355 1.65483C4.93867 1.87803 4.36592 2.19527 4.02769 2.56643C3.68946 2.93759 3.60093 3.346 3.77336 3.74002C3.94579 4.13404 4.37141 4.49598 4.99637 4.78006C5.62134 5.06414 6.41761 5.2576 7.28446 5.33598C8.15131 5.41435 9.0498 5.37413 9.86636 5.22039C10.6829 5.06665 11.3808 4.80629 11.8719 4.47225C12.3629 4.13821 12.625 3.74549 12.625 3.34375C12.625 2.80503 12.1542 2.28837 11.3161 1.90744C10.4781 1.52651 9.34144 1.3125 8.15626 1.3125ZM8.15626 5.0625C7.4084 5.0625 6.67731 4.96171 6.05549 4.77285C5.43366 4.58399 4.94901 4.31554 4.66282 4.00148C4.37663 3.68742 4.30174 3.34184 4.44764 3.00844C4.59354 2.67503 4.95368 2.3688 5.4825 2.12843C6.01132 1.88805 6.68508 1.72435 7.41857 1.65804C8.15206 1.59172 8.91233 1.62576 9.60326 1.75584C10.2942 1.88593 10.8847 2.10621 11.3002 2.38885C11.7157 2.6715 11.9375 3.00381 11.9375 3.34375C11.9375 3.79959 11.5391 4.23675 10.83 4.55907C10.1209 4.8814 9.15911 5.0625 8.15626 5.0625ZM9.22187 2.43123C9.10309 2.37501 8.96042 2.33038 8.8025 2.30001C8.60382 2.26385 8.3908 2.24681 8.1769 2.25C7.96928 2.24828 7.76317 2.26639 7.57189 2.30313C7.40788 2.33446 7.26201 2.38257 7.14565 2.44374C7.03179 2.50003 6.94306 2.56583 6.88439 2.63749C6.82985 2.71029 6.79519 2.78584 6.78125 2.86248L7.62686 2.86248C7.63186 2.79529 7.69338 2.73156 7.79874 2.68437C7.8482 2.66097 7.90823 2.64272 7.97468 2.63085C8.04114 2.61899 8.11245 2.61379 8.18374 2.61563C8.24522 2.61119 8.30788 2.61119 8.36937 2.61563C8.42586 2.62534 8.47737 2.64024 8.52065 2.65939C8.56841 2.67818 8.60602 2.70169 8.63063 2.72813C8.65879 2.7577 8.67285 2.78963 8.67188 2.82186C8.67213 2.87583 8.64632 2.92917 8.59626 2.97811C8.54633 3.02901 8.48406 3.07725 8.41062 3.12188L8.17001 3.25311C8.08751 3.29373 8.00499 3.33749 7.92936 3.38124C7.85604 3.42479 7.79379 3.47195 7.74377 3.52185C7.69607 3.57104 7.67258 3.62437 7.67499 3.6781L7.67499 3.88436L8.5 3.88436L8.5 3.73124C8.50233 3.68541 8.52822 3.64045 8.57562 3.59998C8.63188 3.55493 8.69629 3.5121 8.76814 3.47188L9.01563 3.33436C9.10573 3.28705 9.18842 3.23693 9.26312 3.18437C9.34212 3.13077 9.40677 3.07305 9.45564 3.01248C9.50577 2.94826 9.53134 2.88065 9.53125 2.81251C9.53248 2.74152 9.5093 2.67086 9.46252 2.60312C9.4106 2.53859 9.32848 2.47994 9.22187 2.43123ZM7.675 4.07186L8.47938 4.07186L8.47938 4.43749L7.675 4.43749L7.675 4.07186Z" fill="#424242"/>
</g>
<defs>
<clipPath id="clip0_3_19">
<rect x="3" y="1" width="11" height="5" rx="2.5" fill="white"/>
</clipPath>
</defs>
</svg>
